<svg width="30" height="17" viewBox="0 0 30 17" fill="none" xmlns="http://www.w3.org/2000/svg">
<path d="M27.1535 2.77905C28.7253 2.77905 30.0002 4.05286 30.0002 5.62378V10.531C30.0002 12.1019 28.7253 13.3757 27.1535 13.3757H12.1818C13.7312 11.6986 14.2414 9.57582 14.2414 6.5896V2.77905H27.1535ZM24.8048 5.17944C24.0516 5.17944 23.4557 5.36752 23.0148 5.7439C22.5748 6.12032 22.3416 6.65517 22.3146 7.34839C22.3099 7.49741 22.3068 7.74227 22.3068 8.06812C22.3068 8.39423 22.309 8.62877 22.3146 8.77319C22.3417 9.48298 22.5718 10.0214 23.007 10.3894H23.006C23.4404 10.7574 24.0403 10.9421 24.8039 10.9421C25.2792 10.9421 25.7046 10.8644 26.0812 10.7097C26.4576 10.5551 26.7548 10.3302 26.9738 10.0369C27.1918 9.74442 27.3072 9.39728 27.3175 8.9978C27.3175 8.94946 27.3001 8.90933 27.2658 8.87769C27.2313 8.84509 27.1902 8.82887 27.1418 8.82886H26.0041C25.9296 8.8289 25.8733 8.84396 25.8361 8.8728C25.799 8.90176 25.7705 8.95699 25.7492 9.03687C25.6802 9.29302 25.5659 9.47368 25.4084 9.58081C25.2509 9.68783 25.0488 9.74093 24.8039 9.74097C24.2008 9.74097 23.8879 9.40477 23.8664 8.73315C23.8608 8.57849 23.8586 8.35158 23.8586 8.05249C23.8586 7.75356 23.8608 7.53281 23.8664 7.38843C23.8878 6.71664 24.2007 6.38062 24.8039 6.38062C25.0554 6.38065 25.2565 6.43165 25.4084 6.53589C25.5603 6.63931 25.6746 6.82285 25.7492 7.08374C25.7762 7.16374 25.8065 7.21891 25.841 7.2478C25.8754 7.27665 25.9306 7.29171 26.005 7.29175H27.1427C27.1902 7.29173 27.2323 7.27556 27.2668 7.2439C27.3012 7.21131 27.3185 7.17218 27.3185 7.12378C27.3083 6.72313 27.1938 6.37626 26.9748 6.08276C26.7557 5.79036 26.4586 5.56552 26.0822 5.41089C25.7056 5.25625 25.2802 5.17948 24.8048 5.17944ZM19.216 5.17847C18.7676 5.17847 18.3727 5.24987 18.0343 5.39429C17.6951 5.53869 17.4328 5.73981 17.2492 5.99878C17.0655 6.2578 16.9738 6.55278 16.9738 6.88354C16.9738 7.36885 17.1327 7.74188 17.4533 8.00366C17.774 8.26548 18.2574 8.46 18.9035 8.58765C19.2344 8.65752 19.488 8.72023 19.6642 8.77612C19.8402 8.83197 19.9679 8.89588 20.048 8.96753C20.1282 9.03927 20.1681 9.13209 20.1681 9.2439C20.168 9.39833 20.0912 9.52065 19.9367 9.60815C19.7819 9.69667 19.5597 9.73999 19.2716 9.73999C19.0266 9.73999 18.831 9.69881 18.6837 9.61597C18.5365 9.53398 18.4275 9.42818 18.3586 9.30054C18.3101 9.24747 18.2668 9.20965 18.2267 9.18823C18.1857 9.16773 18.1338 9.15698 18.0695 9.15698H17.005C16.9576 9.15704 16.9154 9.17325 16.881 9.20483C16.8456 9.23744 16.8293 9.27748 16.8293 9.32593C16.8405 9.61356 16.9389 9.88088 17.1252 10.1257C17.3125 10.3707 17.5878 10.5685 17.9503 10.7175L17.9523 10.7166C18.3149 10.8666 18.7553 10.9412 19.2736 10.9412C19.7489 10.9412 20.1701 10.8699 20.5382 10.7283C20.9063 10.5867 21.1946 10.3832 21.4025 10.1169C21.6104 9.85046 21.715 9.53506 21.715 9.17261C21.715 8.84187 21.6438 8.56845 21.5021 8.35229C21.3604 8.13635 21.1421 7.95991 20.8459 7.82397C20.5495 7.68806 20.1507 7.57538 19.6496 7.48413C19.2114 7.39282 18.9125 7.30316 18.7521 7.21558C18.592 7.12708 18.5119 7.00587 18.5119 6.85132C18.512 6.69689 18.5726 6.57982 18.6955 6.49976C18.8176 6.41963 18.9913 6.37964 19.216 6.37964C19.4125 6.37968 19.5788 6.41758 19.7121 6.49487C19.8451 6.57215 19.9274 6.66738 19.9591 6.77905C20.0234 6.87496 20.1142 6.92352 20.2316 6.92358H21.3527C21.401 6.92351 21.4412 6.90526 21.4728 6.87085C21.5051 6.83654 21.5206 6.79592 21.5207 6.7478C21.5104 6.51309 21.4132 6.2741 21.2296 6.03101C21.046 5.78782 20.7807 5.58566 20.4367 5.42261C20.0918 5.25963 19.6642 5.1785 19.216 5.17847Z" fill="white"/>
<path d="M9.55655 7.8123C9.55655 8.43004 9.55748 9.04779 9.55655 9.66554C9.55655 9.98792 9.35891 10.2376 9.05686 10.3112C9.00465 10.3243 8.95152 10.3252 8.89838 10.3252C8.6448 10.3252 8.3903 10.3178 8.13672 10.3271C7.59322 10.3457 7.18862 10.1053 6.87165 9.68044C6.70664 9.46055 6.61715 9.20619 6.51367 8.95741C6.35239 8.56887 6.1967 8.17754 6.03728 7.78807C5.94406 7.56073 5.83592 7.34083 5.6737 7.15169C5.52361 6.97652 5.33623 6.88801 5.10223 6.89267C5.02019 6.89453 4.99502 6.92341 4.99782 7.00168C5.00248 7.1489 4.99875 7.29611 4.99875 7.44333C4.99875 8.35178 4.99875 9.26023 4.99875 10.1687C4.99875 10.3466 5.00341 10.3252 4.83747 10.3261C4.56339 10.3271 4.2893 10.3261 4.01429 10.3261C3.88937 10.3261 3.8875 10.3252 3.8875 10.2078C3.8875 8.96766 3.88564 7.72844 3.8875 6.48829C3.8875 6.15007 4.0581 5.91061 4.34431 5.82023C4.39185 5.80532 4.44033 5.79693 4.48881 5.79693C4.7834 5.79693 5.07892 5.79041 5.37259 5.80159C5.82193 5.8193 6.18458 6.02428 6.48943 6.34573C6.77377 6.64669 6.93971 7.01566 7.10006 7.38835C7.27718 7.80112 7.44406 8.21854 7.62119 8.63223C7.68924 8.79063 7.78433 8.93319 7.8962 9.06549C8.03418 9.22948 8.21503 9.22668 8.40242 9.2155C8.43132 9.21364 8.44717 9.1978 8.4481 9.16892C8.4481 9.13165 8.44996 9.09531 8.44996 9.05804C8.44996 8.02287 8.44996 6.9877 8.44996 5.95254C8.44996 5.84818 8.50403 5.796 8.61217 5.796C8.86575 5.796 9.12025 5.796 9.37383 5.796C9.56494 5.796 9.55655 5.77737 9.55655 5.9721C9.55655 6.58612 9.55655 7.19921 9.55655 7.81323V7.8123Z" fill="white"/>
<path fill-rule="evenodd" clip-rule="evenodd" d="M0 4.5857C3.61156 1.74201 9.29739 0.742254 13.4431 2.261C9.26756 -0.0869986 4.17557 -0.0869986 0 2.261V4.5857Z" fill="white"/>
<path fill-rule="evenodd" clip-rule="evenodd" d="M0.971411 5.76435C3.94717 3.21697 8.29708 1.94607 11.7632 2.261C7.83095 1.47088 3.11653 2.59642 0 5.13915V6.58988C0 11.6511 2.11622 14.232 6.72436 16.3667C11.3269 14.232 13.4431 11.6502 13.4431 6.58988V2.74178C13.1271 2.62531 12.8073 2.51816 12.4717 2.42685V6.58988C12.4717 11.1703 10.6268 13.3972 6.72343 15.2896C2.81541 13.3972 0.971411 11.1703 0.971411 6.58988V5.76528V5.76435Z" fill="white"/>
</svg>
